<?xml version="1.0" encoding="UTF-8" standalone="no"?>
<svg
   xmlns:dc="http://purl.org/dc/elements/1.1/"
   xmlns:cc="http://creativecommons.org/ns#"
   xmlns:rdf="http://www.w3.org/1999/02/22-rdf-syntax-ns#"
   xmlns:svg="http://www.w3.org/2000/svg"
   xmlns="http://www.w3.org/2000/svg"
   xmlns:xlink="http://www.w3.org/1999/xlink"
   xmlns:sodipodi="http://sodipodi.sourceforge.net/DTD/sodipodi-0.dtd"
   xmlns:inkscape="http://www.inkscape.org/namespaces/inkscape"
   sodipodi:docname="app_icon_no_clip.svg"
   inkscape:version="1.0 (4035a4fb49, 2020-05-01)"
   width="108"
   viewBox="0 0 108 108"
   version="1.1"
   id="svg2"
   height="108">
  <metadata
     id="metadata107">
    <rdf:RDF>
      <cc:Work
         rdf:about="">
        <dc:format>image/svg+xml</dc:format>
        <dc:type
           rdf:resource="http://purl.org/dc/dcmitype/StillImage" />
        <dc:title></dc:title>
      </cc:Work>
    </rdf:RDF>
  </metadata>
  <sodipodi:namedview
     inkscape:current-layer="svg2"
     inkscape:window-maximized="1"
     inkscape:window-y="-8"
     inkscape:window-x="54"
     inkscape:cy="58.853933"
     inkscape:cx="54"
     inkscape:zoom="8.2407407"
     showgrid="false"
     id="namedview105"
     inkscape:window-height="1057"
     inkscape:window-width="1858"
     inkscape:pageshadow="2"
     inkscape:pageopacity="0"
     guidetolerance="10"
     gridtolerance="10"
     objecttolerance="10"
     borderopacity="1"
     bordercolor="#666666"
     pagecolor="#ffffff" />
  <defs
     id="defs4">
    <linearGradient
       id="linearGradient5312">
      <stop
         offset="0"
         id="stop5314"
         style="stop-color:#000000;stop-opacity:0.26666668;" />
      <stop
         offset="1"
         id="stop5316"
         style="stop-color:#000000;stop-opacity:0;" />
    </linearGradient>
    <linearGradient
       id="linearGradient3830">
      <stop
         offset="0"
         id="stop3838"
         style="stop-color:#000000;stop-opacity:0.26666668;" />
      <stop
         offset="0.0625"
         id="stop5296"
         style="stop-color:#000000;stop-opacity:0.24705882;" />
      <stop
         offset="0.125"
         id="stop5294"
         style="stop-color:#000000;stop-opacity:0.23137255;" />
      <stop
         offset="0.25"
         id="stop5292"
         style="stop-color:#000000;stop-opacity:0.2;" />
      <stop
         offset="0.5"
         id="stop5290"
         style="stop-color:#000000;stop-opacity:0.13333333;" />
      <stop
         offset="1"
         id="stop3834"
         style="stop-color:#000000;stop-opacity:0;" />
    </linearGradient>
    <linearGradient
       xlink:href="#linearGradient3830"
       inkscape:collect="always"
       y2="19.875"
       y1="19.875"
       x2="95"
       x1="14.125"
       id="linearGradient5306"
       gradientUnits="userSpaceOnUse" />
    <linearGradient
       xlink:href="#linearGradient5312"
       inkscape:collect="always"
       y2="20.0625"
       y1="20.0625"
       x2="96.875"
       x1="21"
       id="linearGradient5318"
       gradientUnits="userSpaceOnUse"
       gradientTransform="matrix(0.65925613,0,0,2.1745371,59.605517,-41.096331)" />
    <clipPath
       id="clipPath5321">
      <path
         id="path3827"
         d="M 40.73,72.54 45,68 l 22,0 0.92,-30.1 30,30 -27.19,34.64 z" />
    </clipPath>
    <linearGradient
       y2="100%"
       y1="0%"
       x2="100%"
       x1="0%"
       spreadMethod="pad"
       id="grad-ucgg-generated"
       gradientUnits="objectBoundingBox">
      <stop
         id="stop16"
         stop-opacity="0.3"
         stop-color="#000000"
         offset="0%" />
      <stop
         id="stop18"
         stop-opacity="0"
         stop-color="#000000"
         offset="70%" />
      <stop
         id="stop20"
         stop-opacity="0"
         stop-color="#000000"
         offset="100%" />
    </linearGradient>
    <clipPath
       id="clipSquareRounded">
      <rect
         id="rect23"
         ry="9"
         rx="9"
         height="90"
         width="90"
         y="9"
         x="9" />
    </clipPath>
  </defs>
  <g
     clip-path="url(#clipCircle)"
     id="allLayers">
    <g
       id="background">
      <rect
         id="rect30"
         y="0"
         x="0"
         width="108"
         height="108"
         style="fill:#4a8bc3;opacity:1" />
      <path
         id="path32"
         d="M9,0L9,108"
         style="fill:#000000;opacity:1;stroke-width:0.8;stroke:#FFFFFF;stroke-opacity:0.2" />
      <path
         id="path34"
         d="M19,0L19,108"
         style="fill:#000000;opacity:1;stroke-width:0.8;stroke:#FFFFFF;stroke-opacity:0.2" />
      <path
         id="path36"
         d="M29,0L29,108"
         style="fill:#000000;opacity:1;stroke-width:0.8;stroke:#FFFFFF;stroke-opacity:0.2" />
      <path
         id="path38"
         d="M39,0L39,108"
         style="fill:#000000;opacity:1;stroke-width:0.8;stroke:#FFFFFF;stroke-opacity:0.2" />
      <path
         id="path40"
         d="M49,0L49,108"
         style="fill:#000000;opacity:1;stroke-width:0.8;stroke:#FFFFFF;stroke-opacity:0.2" />
      <path
         id="path42"
         d="M59,0L59,108"
         style="fill:#000000;opacity:1;stroke-width:0.8;stroke:#FFFFFF;stroke-opacity:0.2" />
      <path
         id="path44"
         d="M69,0L69,108"
         style="fill:#000000;opacity:1;stroke-width:0.8;stroke:#FFFFFF;stroke-opacity:0.2" />
      <path
         id="path46"
         d="M79,0L79,108"
         style="fill:#000000;opacity:1;stroke-width:0.8;stroke:#FFFFFF;stroke-opacity:0.2" />
      <path
         id="path48"
         d="M89,0L89,108"
         style="fill:#000000;opacity:1;stroke-width:0.8;stroke:#FFFFFF;stroke-opacity:0.2" />
      <path
         id="path50"
         d="M99,0L99,108"
         style="fill:#000000;opacity:1;stroke-width:0.8;stroke:#FFFFFF;stroke-opacity:0.2" />
      <path
         id="path52"
         d="M0,9L108,9"
         style="fill:#000000;opacity:1;stroke-width:0.8;stroke:#FFFFFF;stroke-opacity:0.2" />
      <path
         id="path54"
         d="M0,19L108,19"
         style="fill:#000000;opacity:1;stroke-width:0.8;stroke:#FFFFFF;stroke-opacity:0.2" />
      <path
         id="path56"
         d="M0,29L108,29"
         style="fill:#000000;opacity:1;stroke-width:0.8;stroke:#FFFFFF;stroke-opacity:0.2" />
      <path
         id="path58"
         d="M0,39L108,39"
         style="fill:#000000;opacity:1;stroke-width:0.8;stroke:#FFFFFF;stroke-opacity:0.2" />
      <path
         id="path60"
         d="M0,49L108,49"
         style="fill:#000000;opacity:1;stroke-width:0.8;stroke:#FFFFFF;stroke-opacity:0.2" />
      <path
         id="path62"
         d="M0,59L108,59"
         style="fill:#000000;opacity:1;stroke-width:0.8;stroke:#FFFFFF;stroke-opacity:0.2" />
      <path
         id="path64"
         d="M0,69L108,69"
         style="fill:#000000;opacity:1;stroke-width:0.8;stroke:#FFFFFF;stroke-opacity:0.2" />
      <path
         id="path66"
         d="M0,79L108,79"
         style="fill:#000000;opacity:1;stroke-width:0.8;stroke:#FFFFFF;stroke-opacity:0.2" />
      <path
         id="path68"
         d="M0,89L108,89"
         style="fill:#000000;opacity:1;stroke-width:0.8;stroke:#FFFFFF;stroke-opacity:0.2" />
      <path
         id="path70"
         d="M0,99L108,99"
         style="fill:#000000;opacity:1;stroke-width:0.8;stroke:#FFFFFF;stroke-opacity:0.2" />
    </g>
    <g
       id="g3816">
      <rect
         y="40"
         x="40"
         width="60"
         id="rectBackground"
         height="70"
         clip-path="url(#clipPath5321)"
         style="fill:url(#grad-ucgg-generated);fill-opacity:1;stroke:none" />
      <path
         inkscape:connector-curvature="0"
         id="path2991-3"
         d="m 54,65 4,-6 -4,-4 -4,4 z"
         style="fill:#ab6366;fill-opacity:1" />
      <path
         inkscape:connector-curvature="0"
         id="path3801"
         d="m 41,58 26,0 0,8 -26,0 z"
         style="fill:#ffeb3c;fill-opacity:0.75294119" />
      <path
         inkscape:connector-curvature="0"
         id="path3806"
         d="m 41,42 26,0 0,12 -26,0 z"
         style="fill:#000000;fill-opacity:0.2" />
      <path
         inkscape:connector-curvature="0"
         id="path2991"
         d="m 38,63 c 0,1.76 0.78,3.34 2,4.44 L 40,71 c 0,1.1 0.9,2 2,2 h 2 c 1.1,0 2,-0.9 2,-2 v -2 h 16 v 2 c 0,1.1 0.9,2 2,2 h 2 c 1.1,0 2,-0.9 2,-2 v -3.56 c 1.22,-1.1 2,-2.68 2,-4.44 l 0,-20 c 0,-7 -7.16,-8 -16,-8 -8.84,0 -16,1 -16,8 v 20 z m 7,2 c -1.66,0 -3,-1.34 -3,-3 0,-1.66 1.34,-3 3,-3 1.66,0 3,1.34 3,3 0,1.66 -1.34,3 -3,3 z m 18,0 c -1.66,0 -3,-1.34 -3,-3 0,-1.66 1.34,-3 3,-3 1.66,0 3,1.34 3,3 0,1.66 -1.34,3 -3,3 z m 3,-12 -24,0 0,-10 h 24 v 10 z"
         style="fill:#c34a4e;fill-opacity:1" />
    </g>
  </g>
</svg>
