<?xml version="1.0" encoding="UTF-8" standalone="no"?>
<!-- Created with Inkscape (http://www.inkscape.org/) -->

<svg
		xmlns:inkscape="http://www.inkscape.org/namespaces/inkscape"
		xmlns:sodipodi="http://sodipodi.sourceforge.net/DTD/sodipodi-0.dtd"
		xmlns:xlink="http://www.w3.org/1999/xlink"
		height="108"
		id="svg2"
		version="1.1"
		viewBox="0 0 108 108"
		width="108"
		xmlns="http://www.w3.org/2000/svg"
		inkscape:version="0.48.5 r10040"
		sodipodi:docname="test1.svg">
	<defs
			id="defs4">
		<linearGradient
				id="linearGradient5312">
			<stop
					style="stop-color:#000000;stop-opacity:0.26666668;"
					id="stop5314"
					offset="0"/>
			<stop
					style="stop-color:#000000;stop-opacity:0;"
					id="stop5316"
					offset="1"/>
		</linearGradient>
		<linearGradient
				id="linearGradient3830">
			<stop
					style="stop-color:#000000;stop-opacity:0.26666668;"
					id="stop3838"
					offset="0"/>
			<stop
					style="stop-color:#000000;stop-opacity:0.24705882;"
					id="stop5296"
					offset="0.0625"/>
			<stop
					style="stop-color:#000000;stop-opacity:0.23137255;"
					id="stop5294"
					offset="0.125"/>
			<stop
					style="stop-color:#000000;stop-opacity:0.2;"
					id="stop5292"
					offset="0.25"/>
			<stop
					style="stop-color:#000000;stop-opacity:0.13333333;"
					id="stop5290"
					offset="0.5"/>
			<stop
					style="stop-color:#000000;stop-opacity:0;"
					id="stop3834"
					offset="1"/>
		</linearGradient>
		<linearGradient
				gradientUnits="userSpaceOnUse"
				id="linearGradient5306"
				x1="14.125"
				x2="95"
				y1="19.875"
				y2="19.875"
				inkscape:collect="always"
				xlink:href="#linearGradient3830"/>
		<linearGradient
				gradientTransform="matrix(0.65925613,0,0,2.1745371,59.605517,-41.096331)"
				gradientUnits="userSpaceOnUse"
				id="linearGradient5318"
				x1="21"
				x2="96.875"
				y1="20.0625"
				y2="20.0625"
				inkscape:collect="always"
				xlink:href="#linearGradient5312"/>
		<clipPath
				id="clipPath5321">
			<path
					d="M 40.73,72.54 45,68 l 22,0 0.92,-30.1 30,30 -27.19,34.64 z"
					id="path3827"/>
		</clipPath>
		<linearGradient
				gradientUnits="objectBoundingBox"
				id="grad-ucgg-generated"
				spreadMethod="pad"
				x1="0%"
				x2="100%"
				y1="0%"
				y2="100%">
			<stop offset="0%" stop-color="#000000" stop-opacity="0.3"/>
			<stop offset="70%" stop-color="#000000" stop-opacity="0"/>
			<stop offset="100%" stop-color="#000000" stop-opacity="0"/>
		</linearGradient>
		<clipPath
				id="clipSquareRounded">
			<rect
					x="9"
					y="9"
					width="90"
					height="90"
					rx="9"
					ry="9"/>
		</clipPath>
		<clipPath
				id="clipCircle">
			<circle
					cx="54"
					cy="54"
					r="45"/>
		</clipPath>
	</defs>
	<g id="allLayers"
			clip-path="url(#clipCircle)">
		<g id="background">
			<rect style="fill:#4a8bc3;opacity:1"
					height="108"
					width="108"
					x="0"
					y="0"/>
			<path
					style="fill:#000000;opacity:1;stroke-width:0.8;stroke:#FFFFFF;stroke-opacity:0.2"
					d="M9,0L9,108"/>

			<path
					style="fill:#000000;opacity:1;stroke-width:0.8;stroke:#FFFFFF;stroke-opacity:0.2"
					d="M19,0L19,108"/>

			<path
					style="fill:#000000;opacity:1;stroke-width:0.8;stroke:#FFFFFF;stroke-opacity:0.2"
					d="M29,0L29,108"/>

			<path
					style="fill:#000000;opacity:1;stroke-width:0.8;stroke:#FFFFFF;stroke-opacity:0.2"
					d="M39,0L39,108"/>

			<path
					style="fill:#000000;opacity:1;stroke-width:0.8;stroke:#FFFFFF;stroke-opacity:0.2"
					d="M49,0L49,108"/>

			<path
					style="fill:#000000;opacity:1;stroke-width:0.8;stroke:#FFFFFF;stroke-opacity:0.2"
					d="M59,0L59,108"/>

			<path
					style="fill:#000000;opacity:1;stroke-width:0.8;stroke:#FFFFFF;stroke-opacity:0.2"
					d="M69,0L69,108"/>

			<path
					style="fill:#000000;opacity:1;stroke-width:0.8;stroke:#FFFFFF;stroke-opacity:0.2"
					d="M79,0L79,108"/>

			<path
					style="fill:#000000;opacity:1;stroke-width:0.8;stroke:#FFFFFF;stroke-opacity:0.2"
					d="M89,0L89,108"/>

			<path
					style="fill:#000000;opacity:1;stroke-width:0.8;stroke:#FFFFFF;stroke-opacity:0.2"
					d="M99,0L99,108"/>
			<path
					style="fill:#000000;opacity:1;stroke-width:0.8;stroke:#FFFFFF;stroke-opacity:0.2"
					d="M0,9L108,9"/>
			<path
					style="fill:#000000;opacity:1;stroke-width:0.8;stroke:#FFFFFF;stroke-opacity:0.2"
					d="M0,19L108,19"/>
			<path
					style="fill:#000000;opacity:1;stroke-width:0.8;stroke:#FFFFFF;stroke-opacity:0.2"
					d="M0,29L108,29"/>


			<path
					style="fill:#000000;opacity:1;stroke-width:0.8;stroke:#FFFFFF;stroke-opacity:0.2"
					d="M0,39L108,39"/>
			<path
					style="fill:#000000;opacity:1;stroke-width:0.8;stroke:#FFFFFF;stroke-opacity:0.2"
					d="M0,49L108,49"/>
			<path
					style="fill:#000000;opacity:1;stroke-width:0.8;stroke:#FFFFFF;stroke-opacity:0.2"
					d="M0,59L108,59"/>
			<path
					style="fill:#000000;opacity:1;stroke-width:0.8;stroke:#FFFFFF;stroke-opacity:0.2"
					d="M0,69L108,69"/>
			<path
					style="fill:#000000;opacity:1;stroke-width:0.8;stroke:#FFFFFF;stroke-opacity:0.2"
					d="M0,79L108,79"/>
			<path
					style="fill:#000000;opacity:1;stroke-width:0.8;stroke:#FFFFFF;stroke-opacity:0.2"
					d="M0,89L108,89"/>
			<path
					style="fill:#000000;opacity:1;stroke-width:0.8;stroke:#FFFFFF;stroke-opacity:0.2"
					d="M0,99L108,99"/>

			<path
					style="fill:#000000;opacity:1;stroke-width:0.8;stroke:#FFFFFF;stroke-opacity:0.2"
					d="M19,29L89,29"/>
			<path
					style="fill:#000000;opacity:1;stroke-width:0.8;stroke:#FFFFFF;stroke-opacity:0.2"
					d="M19,39L89,39"/>
			<path
					style="fill:#000000;opacity:1;stroke-width:0.8;stroke:#FFFFFF;stroke-opacity:0.2"
					d="M19,49L89,49"/>
			<path
					style="fill:#000000;opacity:1;stroke-width:0.8;stroke:#FFFFFF;stroke-opacity:0.2"
					d="M19,59L89,59"/>
			<path
					style="fill:#000000;opacity:1;stroke-width:0.8;stroke:#FFFFFF;stroke-opacity:0.2"
					d="M19,69L89,69"/>
			<path
					style="fill:#000000;opacity:1;stroke-width:0.8;stroke:#FFFFFF;stroke-opacity:0.2"
					d="M19,79L89,79"/>
			<path
					style="fill:#000000;opacity:1;stroke-width:0.8;stroke:#FFFFFF;stroke-opacity:0.2"
					d="M29,19L29,89"/>
			<path
					style="fill:#000000;opacity:1;stroke-width:0.8;stroke:#FFFFFF;stroke-opacity:0.2"
					d="M39,19L39,89"/>
			<path
					style="fill:#000000;opacity:1;stroke-width:0.8;stroke:#FFFFFF;stroke-opacity:0.2"
					d="M49,19L49,89"/>
			<path
					style="fill:#000000;opacity:1;stroke-width:0.8;stroke:#FFFFFF;stroke-opacity:0.2"
					d="M59,19L59,89"/>
			<path
					style="fill:#000000;opacity:1;stroke-width:0.8;stroke:#FFFFFF;stroke-opacity:0.2"
					d="M69,19L69,89"/>
			<path
					style="fill:#000000;opacity:1;stroke-width:0.8;stroke:#FFFFFF;stroke-opacity:0.2"
					d="M79,19L79,89"/>

		</g>
		<g id="g3816">
			<rect
					style="fill:url(#grad-ucgg-generated);fill-opacity:1;stroke:none"
					clip-path="url(#clipPath5321)"
					height="70"
					id="rectBackground"
					width="60"
					x="40"
					y="40"/>
			<path
					style="fill:#ab6366;fill-opacity:1"
					d="m 54,65 4,-6 -4,-4 -4,4 z"
					id="path2991-3"
					inkscape:connector-curvature="0"/>
			<path
					style="fill:#ffeb3c;fill-opacity:0.75294119"
					d="m 41,58 26,0 0,8 -26,0 z"
					id="path3801"
					inkscape:connector-curvature="0"/>
			<path
					style="fill:#000000;fill-opacity:0.2"
					d="m 41,42 26,0 0,12 -26,0 z"
					id="path3806"
					inkscape:connector-curvature="0"/>
			<path
					style="fill:#c34a4e;fill-opacity:1"
					d="m 38,63 c 0,1.76 0.78,3.34 2,4.44 L 40,71 c 0,1.1 0.9,2 2,2 h 2 c 1.1,0 2,-0.9 2,-2 v -2 h 16 v 2 c 0,1.1 0.9,2 2,2 h 2 c 1.1,0 2,-0.9 2,-2 v -3.56 c 1.22,-1.1 2,-2.68 2,-4.44 l 0,-20 c 0,-7 -7.16,-8 -16,-8 -8.84,0 -16,1 -16,8 v 20 z m 7,2 c -1.66,0 -3,-1.34 -3,-3 0,-1.66 1.34,-3 3,-3 1.66,0 3,1.34 3,3 0,1.66 -1.34,3 -3,3 z m 18,0 c -1.66,0 -3,-1.34 -3,-3 0,-1.66 1.34,-3 3,-3 1.66,0 3,1.34 3,3 0,1.66 -1.34,3 -3,3 z m 3,-12 -24,0 0,-10 h 24 v 10 z"
					id="path2991"
					inkscape:connector-curvature="0"/>
		</g></g>
</svg>
